<?xml version="1.0" encoding="windows-1252"?>
<!-- Uploaded to: SVG Repo, www.svgrepo.com, Generator: SVG Repo Mixer Tools -->
<svg fill="#54595D" height="800px" width="800px" version="1.1" id="Capa_1" xmlns="http://www.w3.org/2000/svg" xmlns:xlink="http://www.w3.org/1999/xlink" viewBox="0 0 611.999 611.999" xml:space="preserve">
<g>
	<path d="M34.864,436.154c0,25.238,20.532,45.77,45.77,45.77c8.835,0,17.089-2.523,24.092-6.878l155.56,89.848   c-0.013,0.445-0.034,0.888-0.034,1.336c0,25.237,20.532,45.77,45.77,45.77s45.77-20.532,45.77-45.77   c0-0.477-0.021-0.948-0.036-1.421l155.526-89.758c7.001,4.351,15.252,6.872,24.084,6.872c25.238,0,45.771-20.533,45.771-45.77   c0-17.416-9.78-32.588-24.134-40.321l0.031-179.603c14.338-7.738,24.104-22.902,24.104-40.305c0-0.013-0.001-0.025-0.001-0.038   s0.001-0.025,0.001-0.038c0-25.237-20.533-45.77-45.771-45.77c-8.844,0-17.105,2.529-24.113,6.891L351.774,47.166   c0.004-0.243,0.019-1.284,0.019-1.396c0-25.238-20.533-45.77-45.77-45.77s-45.77,20.532-45.77,45.77   c0,0.112,0.014,1.142,0.018,1.381l-155.573,89.784c-6.996-4.343-15.24-6.859-24.063-6.859c-25.238,0-45.77,20.532-45.77,45.77   c0,0.013,0.001,0.025,0.001,0.038s-0.001,0.025-0.001,0.038c0,17.398,9.759,32.558,24.09,40.298l-0.03,179.649   C44.609,403.616,34.864,418.768,34.864,436.154z M507.282,214.821c0.787,0.489,1.586,0.959,2.403,1.4l-0.031,179.649   c-14.314,7.746-24.059,22.897-24.059,40.283c0,0.451,0.021,0.898,0.034,1.346l-155.586,89.793c-0.768-0.476-1.55-0.933-2.347-1.364   V346.302c14.334-7.74,24.096-22.901,24.096-40.302c0-0.477-0.021-0.948-0.036-1.421L507.282,214.821z M281.412,84.997   c7.113,4.555,15.555,7.21,24.61,7.21c9.05,0,17.487-2.651,24.597-7.202l155.01,89.53c-0.012,0.437-0.033,0.871-0.033,1.311   c0,0.013,0.001,0.025,0.001,0.038c0,0.013-0.001,0.025-0.001,0.038c0,0.451,0.021,0.898,0.034,1.346l-155.586,89.794   c-6.988-4.327-15.216-6.832-24.021-6.832c-8.835,0-17.089,2.523-24.092,6.878l-155.56-89.847c0.013-0.445,0.034-0.888,0.034-1.336   c0-0.013-0.001-0.025-0.001-0.038s0.001-0.025,0.001-0.038c0-0.459-0.021-0.914-0.035-1.371L281.412,84.997z M102.301,216.229   c0.825-0.445,1.632-0.919,2.425-1.412l155.56,89.848c-0.013,0.445-0.034,0.888-0.034,1.336c0,17.401,9.762,32.562,24.097,40.302   v179.626c-0.823,0.444-1.627,0.917-2.419,1.41l-155.56-89.848c0.013-0.445,0.034-0.888,0.034-1.336   c0-17.416-9.78-32.588-24.134-40.321L102.301,216.229z"/>
</g>
</svg>
