<svg version="1.2" xmlns="http://www.w3.org/2000/svg" viewBox="0 0 800 800" width="800" height="800">
	<style>
		.s0 { fill: #000000 } 
	</style>
	<g id="Layer 1">
		<path fill-rule="evenodd" class="s0" d="m375.35 316.42l-82.33 82.33 82.33 82.34c4.97 4.62 7.84 11.06 7.96 17.85 0.12 6.78-2.52 13.32-7.32 18.11-4.8 4.8-11.34 7.44-18.12 7.32-6.78-0.12-13.22-2.99-17.85-7.95l-100-100c-2.32-2.32-4.16-5.08-5.41-8.11-1.25-3.03-1.9-6.28-1.9-9.56 0-3.28 0.65-6.53 1.9-9.56 1.25-3.03 3.09-5.78 5.41-8.1l100-100c4.74-4.42 11.01-6.82 17.49-6.71 6.47 0.11 12.65 2.74 17.23 7.32 4.58 4.58 7.21 10.76 7.32 17.24 0.11 6.47-2.29 12.74-6.71 17.48z"/>
		<path fill-rule="evenodd" class="s0" d="m125 66.67c-7.66 0-15.25 1.51-22.32 4.44-7.08 2.93-13.51 7.23-18.93 12.64-5.41 5.42-9.71 11.85-12.64 18.93-2.93 7.07-4.44 14.66-4.44 22.32v550c0 32.2 26.13 58.33 58.33 58.33h550c7.66 0 15.25-1.51 22.32-4.44 7.08-2.93 13.51-7.23 18.93-12.64 5.41-5.42 9.71-11.85 12.64-18.93 2.93-7.07 4.44-14.66 4.44-22.32v-550c0-7.66-1.51-15.25-4.44-22.32-2.93-7.08-7.23-13.51-12.64-18.93-5.42-5.41-11.85-9.71-18.93-12.64-7.07-2.93-14.66-4.44-22.32-4.44zm-8.33 58.33q0-1.66 0.63-3.19 0.64-1.53 1.81-2.7 1.17-1.17 2.7-1.81 1.53-0.63 3.19-0.63h375v566.66h-375q-1.66 0-3.19-0.63-1.53-0.64-2.7-1.81-1.17-1.17-1.81-2.7-0.63-1.53-0.63-3.19zm433.33 558.33v-566.66h125q1.66 0 3.19 0.63 1.53 0.64 2.7 1.81 1.17 1.17 1.81 2.7 0.63 1.53 0.63 3.19v550q0 1.66-0.63 3.19-0.64 1.53-1.81 2.7-1.17 1.17-2.7 1.81-1.53 0.63-3.19 0.63z"/>
	</g>
</svg>