<svg version="1.2" xmlns="http://www.w3.org/2000/svg" viewBox="0 0 1575 943" width="1575" height="943">
	<style>
		.s0 { fill: #0387af;stroke: #000000;stroke-width: 18 }
		.s1 { fill: #03993a;stroke: #000000;stroke-width: 18 }
		.s2 { fill: #f4ac04;stroke: #000000;stroke-width: 18 }
		.s3 { fill: #a180dd;stroke: #000000;stroke-width: 18 }
		.s4 { fill: #c10101;stroke: #000000;stroke-width: 18 }
		.s5 { fill: #ffffff;stroke: #000000;stroke-width: 18 }
	</style>
	<g id="Layer 1">
		<path class="s0" d="m604.17 138.25v111.83h366.66v-111.83z"/>
		<path class="s1" d="m538.44 228.73l190.26 585.57h117.6l-212.73-654.69z"/>
		<path class="s2" d="m479.64 633.35h615.72l36.33-111.84h-688.38z"/>
		<path class="s3" d="m846.3 814.3l190.26-585.57-95.13-69.12-212.73 654.69z"/>
		<path class="s4" d="m941.43 159.61l-498.12 361.9 36.33 111.84 556.92-404.62z"/>
		<path class="s5" d="m461.47 672.43c-52.54 0-95-42.47-95-95 0-52.53 42.46-95 95-95 52.53 0 95 42.47 95 95 0 52.53-42.47 95-95 95z"/>
		<path class="s5" d="m787.5 909.3c-52.53 0-95-42.47-95-95 0-52.53 42.47-95 95-95 52.53 0 95 42.47 95 95 0 52.53-42.47 95-95 95z"/>
		<path class="s5" d="m1113.53 672.43c-52.54 0-95-42.47-95-95 0-52.53 42.46-95 95-95 52.54 0 95 42.47 95 95 0 52.53-42.46 95-95 95z"/>
		<path class="s5" d="m586.01 289.17c-52.53 0-95-42.47-95-95 0-52.54 42.47-95 95-95 52.53 0 95 42.46 95 95 0 52.53-42.47 95-95 95z"/>
		<path class="s5" d="m988.99 289.17c-52.53 0-95-42.47-95-95 0-52.54 42.47-95 95-95 52.54 0 95 42.46 95 95 0 52.53-42.46 95-95 95z"/>
	</g>
</svg>
